<svg xmlns="http://www.w3.org/2000/svg" xmlns:xlink="http://www.w3.org/1999/xlink" width="636.661" height="636.661" viewBox="0 0 636.661 636.661">
  <defs>
    <filter id="Path_1" x="0" y="0" width="636.661" height="636.661" filterUnits="userSpaceOnUse">
      <feOffset dy="3" input="SourceAlpha"/>
      <feGaussianBlur stdDeviation="3" result="blur"/>
      <feFlood flood-opacity="0.161"/>
      <feComposite operator="in" in2="blur"/>
      <feComposite in="SourceGraphic"/>
    </filter>
    <filter id="Exclusion_1" x="98.377" y="104.758" width="426.442" height="425.243" filterUnits="userSpaceOnUse">
      <feOffset dy="5" input="SourceAlpha"/>
      <feGaussianBlur stdDeviation="3" result="blur-2"/>
      <feFlood flood-opacity="0.161"/>
      <feComposite operator="in" in2="blur-2"/>
      <feComposite in="SourceGraphic"/>
    </filter>
  </defs>
  <g id="logo" transform="translate(-679.339 1130.851)">
    <g transform="matrix(1, 0, 0, 1, 679.34, -1130.85)" filter="url(#Path_1)">
      <g id="Path_1-2" data-name="Path 1" transform="translate(9 6)" fill="#ffc25c">
        <path d="M 309.33056640625 611.1611328125 C 142.9006500244141 611.1611328125 7.499983310699463 475.7604675292969 7.499983310699463 309.3305358886719 L 7.499983310699463 7.500035762786865 L 309.33056640625 7.500035762786865 C 475.760498046875 7.500035762786865 611.1611328125 142.9006195068359 611.1611328125 309.3305358886719 C 611.1611328125 475.7604675292969 475.760498046875 611.1611328125 309.33056640625 611.1611328125 Z" stroke="none"/>
        <path d="M 15 15 L 15 309.3305358886719 C 15 471.625 147.0361022949219 603.6610717773438 309.33056640625 603.6610717773438 C 471.625 603.6610717773438 603.6611328125 471.625 603.6611328125 309.3305358886719 C 603.6611328125 147.0360717773438 471.625 15 309.33056640625 15 L 15 15 M 0 0 C 0 0 234.1610107421875 0 309.33056640625 0 C 480.1691284179688 0 618.6611328125 138.4920043945312 618.6611328125 309.3305358886719 C 618.6611328125 480.1690063476562 480.1691284179688 618.6610717773438 309.33056640625 618.6610717773438 C 138.4920349121094 618.6610717773438 0 480.1690063476562 0 309.3305358886719 C 0 213.6615295410156 0 0 0 0 Z" stroke="none" fill="#2d4059"/>
      </g>
    </g>
    <g transform="matrix(1, 0, 0, 1, 679.34, -1130.85)" filter="url(#Exclusion_1)">
      <path id="Exclusion_1-2" data-name="Exclusion 1" d="M181.51,667.636A269.464,269.464,0,0,1,152.489,666a263.135,263.135,0,0,1-40.224-7.56,212.708,212.708,0,0,1-44.5-17.46,177.217,177.217,0,0,1-21.685-13.685A161.7,161.7,0,0,1,25.93,609.643,157.251,157.251,0,0,1,5.418,583.231,171.217,171.217,0,0,1-10.4,549.886a211.594,211.594,0,0,1-9.737-41.08A289.167,289.167,0,0,1-22.4,459.19c.4-10.978,1.3-21.674,2.68-31.793a260.69,260.69,0,0,1,5.413-28.227A217.423,217.423,0,0,1-6.467,374.3,188.076,188.076,0,0,1,3.487,352.58,169.924,169.924,0,0,1,15.249,333.8,159.5,159.5,0,0,1,58.3,293c18.51-11.966,40.04-20.692,63.993-25.935a244.844,244.844,0,0,1,29.271-4.532c8.02-.756,16.15-1.139,24.165-1.139a192.188,192.188,0,0,1,23.154,1.211l-.137,8.547a123.523,123.523,0,0,1,20.622-1.677,63.734,63.734,0,0,1,13.378,1.364,53.12,53.12,0,0,1,11.97,4.092,67.349,67.349,0,0,1,10.386,6.2,58.823,58.823,0,0,1,8.625,7.7,59.632,59.632,0,0,1,11.794,19.011,58.03,58.03,0,0,1,4.048,20.771,83.808,83.808,0,0,1-2.9,21.607,105.331,105.331,0,0,1-8.713,21.871,175.37,175.37,0,0,1-13.994,22.091,241.679,241.679,0,0,1-18.747,22.267,388.325,388.325,0,0,1-39.359,35.893l1-62.427c-1.041,1.1-2.112,2.213-3.181,3.3-7.009,7.127-16.011,15.359-26.755,24.467-4.923,4.219-10.55,8.839-16.723,13.73s-12.451,9.808-18.659,14.61-12.062,9.238-17.426,13.2c-5.379,3.975-9.761,7.055-13.027,9.154a261.859,261.859,0,0,1,5.545-30.541,227.56,227.56,0,0,1,8.889-28.252,247.072,247.072,0,0,1,11.442-25.26,187.319,187.319,0,0,1,13.2-21.564,146.94,146.94,0,0,1,14.61-17.558,106.594,106.594,0,0,1,15.666-13.246,71.184,71.184,0,0,1,13.89-7.523,50.052,50.052,0,0,1,13.626-3.367l-1.1,68.848a139.785,139.785,0,0,0,13.542-16.415,61.253,61.253,0,0,0,8.626-17.6,66.015,66.015,0,0,0,2.464-18.131,12.478,12.478,0,0,0-2.112-7.041,20,20,0,0,0-5.1-5.28,27.493,27.493,0,0,0-6.337-3.345,17.319,17.319,0,0,0-5.809-1.232c-1.379,0-2.781.067-4.168.2l.8-49.922a104.584,104.584,0,0,0-15.816,3.956,141.048,141.048,0,0,0-30.8,14.61,162.237,162.237,0,0,0-25.7,20.243c-7.71,7.477-14.817,14.94-21.123,22.18a239.378,239.378,0,0,0-26.58,38.725,270.131,270.131,0,0,0-19.011,42.951A290.83,290.83,0,0,0,48.266,458.7a265.938,265.938,0,0,0-3.873,44.535c0,45.552,10.187,80.613,30.277,104.207S123.543,643,160.219,643a165.875,165.875,0,0,0,32.634-3.367l-.443,27.689-.021,0C191.669,667.377,187.763,667.635,181.51,667.636Zm11.342-28h0l.89-55.68a160.031,160.031,0,0,1-25.074,2.013,91.121,91.121,0,0,1-17.647-1.584,55.318,55.318,0,0,1-14.214-4.753,64.159,64.159,0,0,1-11.222-7.173,51.646,51.646,0,0,1-8.669-8.845,58.393,58.393,0,0,1-6.249-10.165,56.707,56.707,0,0,1-3.961-11.133,94.619,94.619,0,0,1-2.816-22.18,8.733,8.733,0,0,1,1.232-4.533,12.133,12.133,0,0,1,3.7-3.74c3.261-2.214,6.578-4.286,9.858-6.161,24.063-14.718,46.212-29.7,65.833-44.534,3.869-2.925,7.683-5.892,11.336-8.818l-2.1,131.606a181.015,181.015,0,0,0,25.092-5.907,247.805,247.805,0,0,0,49.991-22A331.325,331.325,0,0,0,316.353,522.6,417.142,417.142,0,0,0,359.479,480.7a62.246,62.246,0,0,1,10.122-9.241c2.978-2.044,5.614-3.08,7.833-3.08a5.162,5.162,0,0,1,3.344,1.144,8.045,8.045,0,0,1,2.289,3.432c1.168,3.037,1.76,8.131,1.76,15.138a39.836,39.836,0,0,1-2.288,12.85,66.525,66.525,0,0,1-6.865,13.906c-6.072,9.575-14.837,20.472-26.051,32.388-6.425,6.775-13.265,13.393-20.331,19.671s-14.558,12.393-22.268,18.175-15.646,11.26-23.587,16.282-16.115,9.73-24.291,13.994-16.527,8.128-24.82,11.485a265.175,265.175,0,0,1-25.172,8.757c-5.47,1.6-10.954,2.95-16.3,4.027Z" transform="translate(130.49 -152.13)" fill="#2d4059" stroke="rgba(0,0,0,0)" stroke-linejoin="round" stroke-miterlimit="10" stroke-width="1"/>
    </g>
  </g>
</svg>
